<mxfile host="app.diagrams.net" modified="2024-02-29T15:21:19.340Z" agent="Mozilla/5.0 (Windows NT 10.0; Win64; x64) AppleWebKit/537.36 (KHTML, like Gecko) Chrome/122.0.0.0 Safari/537.36 Edg/122.0.0.0" version="23.1.8" etag="fE-i7fp5izcq99h90qqZ" type="github">
  <diagram name="PÃ¡gina-1" id="CDcP8-URt0z3Lxg3oXSW">
    <mxGraphModel>
      <root>
        <mxCell id="0" />
        <mxCell id="1" parent="0" />
      </root>
    </mxGraphModel>
  </diagram>
</mxfile>
